# xmcd
#
# Track frame offsets:
#	150
#	10152
#	26587
#	41547
#	60232
#	78402
#	90620
#	109102
#	127147
#	140950
#	155090
#	174907
#	188530
#	200945
#	215995
#	233312
#	245925
#	268167
#
# Disc length: 3785 seconds
#
# Revision: 1
# Processed by: cddbd v1.5.2PL0 Copyright (c) Steve Scherf et al.
# Submitted via: audiograbber 1.83.01
#
DISCID=050ec712
DTITLE=Sumner And Assoc. - Real Gospel Vol.Five
DYEAR=1900
DGENRE=Gospel
TTITLE0=Lumber River Qt.  - Too Much Waiting
TTITLE1=Donnie Sumner - Earth Has No Sorrow
TTITLE2=Lumber River Qt. - Jesus Is Mine
TTITLE3=Jody Miller - On My Knees For You
TTITLE4=Harlan Burton - Pray Angel Around Them
TTITLE5=Ava Berry - Wipe Away All My Tears
TTITLE6=Buddt NcKee - The Night Before Easter
TTITLE7=Gladys Jones - What We're Here For
TTITLE8=Manna - What a Wonderful Friend
TTITLE9=Kenny Brazeal - I Believe In The Old Rugged Cross
TTITLE10=Bill Tripp - Talk About Me Down On Your Knees
TTITLE11=Kenny Brazeal - Jesus Got In My Way
TTITLE12=Evelyn Conner - Songs We Love
TTITLE13=The Carters - Condemned No More
TTITLE14=Ernie Ashworth - Every Time The Cross Crosses My Mind
TTITLE15=Fred And Lura Whitaker - Thank Heaven For You
TTITLE16=Roy Pruett  - Do You Know Him
TTITLE17=Jim Watters - The Blood's Good Enough
EXTD=
EXTT0=
EXTT1=
EXTT2=
EXTT3=
EXTT4=
EXTT5=
EXTT6=
EXTT7=
EXTT8=
EXTT9=
EXTT10=
EXTT11=
EXTT12=
EXTT13=
EXTT14=
EXTT15=
EXTT16=
EXTT17=
PLAYORDER=
